<?xml version="1.0" encoding="UTF-8" standalone="no"?>
<!-- Created with Inkscape (http://www.inkscape.org/) -->

<svg
   xmlns:dc="http://purl.org/dc/elements/1.1/"
   xmlns:cc="http://creativecommons.org/ns#"
   xmlns:rdf="http://www.w3.org/1999/02/22-rdf-syntax-ns#"
   xmlns:svg="http://www.w3.org/2000/svg"
   xmlns="http://www.w3.org/2000/svg"
   xmlns:xlink="http://www.w3.org/1999/xlink"
   xmlns:sodipodi="http://sodipodi.sourceforge.net/DTD/sodipodi-0.dtd"
   xmlns:inkscape="http://www.inkscape.org/namespaces/inkscape"
   width="85mm"
   height="54mm"
   id="svg3332"
   version="1.1"
   inkscape:version="0.48.0 r9654">
  <defs
     id="defs3" />
  <sodipodi:namedview
     id="base"
     pagecolor="#ffffff"
     bordercolor="#666666"
     borderopacity="1.0"
     inkscape:pageopacity="0.0"
     inkscape:pageshadow="2"
     inkscape:zoom="1.2"
     inkscape:cx="160"
     inkscape:cy="90"
     inkscape:document-units="mm"
     inkscape:current-layer="layer1"
     showgrid="false"
     inkscape:window-width="530"
     inkscape:window-height="412"
     inkscape:window-x="296"
     inkscape:window-y="474"
     inkscape:window-maximized="0" />
  <metadata
     id="metadata3336">
    <rdf:RDF>
      <cc:Work
         rdf:about="">
        <dc:format>image/svg+xml</dc:format>
        <dc:type
           rdf:resource="http://purl.org/dc/dcmitype/StillImage" />
        <dc:title></dc:title>
      </cc:Work>
    </rdf:RDF>
  </metadata>
  <g
     inkscape:label="Layer 1"
     inkscape:groupmode="layer"
     id="layer1">
    <g
       id="g3389"
       style="display:inline"
       transform="translate(-234.14565,-153.33794)">
      <g
         id="g3391">
        <path
           inkscape:connector-curvature="0"
           id="path3393"
           d="m 486.91717,313.10511 0,-0.0581 c 0,-0.11612 -0.0581,-0.17418 -0.11613,-1.04512 -0.0581,-0.81287 -0.17418,-3.01923 0.929,-4.12242 0.40643,-0.46449 1.10318,-0.81287 1.56768,-0.92899 2.1483,-0.52256 4.64498,-0.17419 7.02553,2.55474 1.21931,1.39349 1.79993,2.03217 2.09024,2.32248 l 0.23225,0.23225 c 0.11612,0.0581 4.06435,1.858 4.06435,1.858 l 0.0581,0 0,-0.11613 c 0,0 -2.49668,-3.25148 -2.03218,-5.86428 0.34837,-2.09024 2.03218,-1.91606 4.35467,-1.68381 0.7548,0.11613 1.56768,0.23225 2.49667,0.23225 2.49668,0 5.16754,-0.4645 6.79328,-1.16124 1.10318,-0.4645 1.74187,-0.81288 2.20637,-1.16125 0.11612,-0.11612 0.23225,-0.34837 0.29031,-0.58062 l 0.0581,-0.11613 c 0.0581,-0.17418 0.17419,-0.58062 0.23225,-0.81287 0,-0.0581 0,-0.17418 -0.0581,-0.23225 l -0.23225,0.0581 c -0.69675,0.46449 -2.49668,1.27736 -4.23854,1.27736 -2.09024,0.0581 -6.32879,-2.09024 -6.73522,-2.32248 l -0.0581,-0.0581 c -0.11612,-0.23225 -0.7548,-1.74186 -0.87093,-2.09024 3.01924,2.03218 5.57398,3.13536 7.49003,3.30955 2.1483,0.17419 3.83211,-0.98706 4.58692,-1.50962 0.11612,-0.0581 0.23224,-0.11612 0.29031,-0.17418 l 0.0581,-0.0581 c -0.11613,-0.75481 -1.27737,-4.43014 -2.1483,-5.31269 -0.23225,-0.23806 -0.40644,-0.47611 -0.75481,-0.69675 -3.42567,-1.64316 -7.14166,-2.34571 -10.85764,-2.94375 0,0 0,1.59671 0,1.76509 -0.75481,-0.24967 -6.21266,-2.00431 -11.32213,-2.18082 -4.29661,-0.1527 -10.56733,-0.71068 -18.92829,4.41622 l -0.23225,0.15096 c -3.94823,2.42119 -6.64232,5.44043 -8.05904,8.98222 -0.44127,1.10319 -1.03931,3.59986 -0.45288,5.92235 0.25547,1.04512 0.73158,2.03218 1.37607,2.96118 1.44575,2.09024 3.88436,3.48373 6.49716,3.71598 3.71599,0.29031 6.50297,-1.33543 7.49003,-4.47079 0.69675,-2.14831 0,-5.28367 -2.6128,-6.85135 -2.1483,-1.33543 -4.47079,-1.04512 -5.74816,-0.17418 -1.16124,0.81287 -1.85799,1.97411 -1.79993,3.30954 0,2.26443 1.97412,3.5418 3.42567,3.5418 0.40644,0 0.87094,-0.11612 1.33543,-0.23225 0.17419,-0.0581 0.29032,-0.11612 0.4645,-0.23225 l 0.0581,-0.0581 0.0581,0 0,0 c 0.29031,-0.23225 0.52256,-0.58062 0.52256,-0.98706 0,-0.0581 -0.0581,-0.17419 -0.0581,-0.29031 -0.17419,-0.58062 -0.75481,-0.929 -1.33544,-0.81287 l -0.11612,0 -0.11613,0 -0.11612,0.0581 c -0.34837,0.11613 -0.58062,0.11613 -0.63868,0.11613 -0.17419,0 -0.98706,-0.29032 -0.98706,-1.16125 l 0,0 c 0,-0.34837 0.11612,-0.58062 0.17418,-0.69675 0.29032,-0.40643 0.98706,-0.81287 1.91606,-0.7548 1.27737,0.11612 2.1483,0.7548 2.72892,1.97411 0.58063,1.10318 0.40644,2.49668 -0.34837,3.5418 -0.75481,0.98706 -2.1483,1.39349 -4.00629,1.2193 -1.858,-0.23224 -3.42568,-1.27736 -4.29661,-2.96117 -0.84771,-1.62574 -0.89996,-3.5418 -0.11612,-4.99335 1.85799,-3.5418 5.39978,-3.48374 7.3739,-3.19342 2.84505,0.52256 6.1546,3.19342 7.31584,6.21265 0.17419,0.52256 0.23225,0.87094 0.34837,1.21931 l 0.11613,0.58062 3.25148,1.56768 0.11613,0 z m 22.76039,-17.25609 0,0 c -0.63868,0.56901 -0.98706,1.34704 -0.98706,2.15991 -0.0581,1.74187 1.27737,3.19343 3.01924,3.25149 0.81287,0.0581 1.62574,-0.23225 2.20636,-0.81287 0.63869,-0.58062 0.98706,-1.33543 0.98706,-2.20637 0.0581,-1.71283 -1.27737,-3.17019 -3.01923,-3.22826 -0.81287,-0.029 -1.62575,0.26709 -2.20637,0.8361"
           style="fill:#6eb927;fill-opacity:1;fill-rule:evenodd" />
        <path
           inkscape:connector-curvature="0"
           id="path3395"
           d="m 511.70974,300.27336 0,0 c -1.16124,0 -2.1483,-1.04512 -2.09024,-2.26443 0,-0.58062 0.29031,-1.09737 0.69675,-1.4922 0.40643,-0.39482 0.98705,-0.60384 1.56768,-0.58062 1.2193,0.0407 2.1483,1.05093 2.09024,2.24701 0,0.58062 -0.23225,1.10318 -0.69675,1.50962 -0.40644,0.40643 -0.98706,0.63868 -1.56768,0.58062 l 0,0 z m 0.52256,-1.97411 c 0.52256,0 0.98706,-0.29032 0.98706,-0.63869 0,-0.34837 -0.4645,-0.63288 -0.98706,-0.63288 -0.52256,0 -0.98706,0.28451 -0.98706,0.63288 0,0.34837 0.4645,0.63869 0.98706,0.63869"
           style="fill:#6eb927" />
        <path
           inkscape:connector-curvature="0"
           id="path3397"
           d="m 463.50067,319.4339 c -0.69559,0 -1.25995,0.58062 -1.25995,1.2193 l 0,2.6128 c 0,0.69675 0.5452,1.21931 1.2135,1.21931 l 1.70122,0 c 0.66772,0 1.2135,-0.52256 1.2135,-1.21931 l 0,-2.6128 c 0,-0.69674 -0.5632,-1.2193 -1.25414,-1.2193 l -1.61413,0 z m -0.36579,3.71598 0,-2.38055 c 0,-0.29031 0.22644,-0.52256 0.51095,-0.52256 l 1.31801,0 c 0.2787,0 0.51675,0.23225 0.51675,0.52256 l 0,2.38055 c 0,0.29031 -0.23225,0.52256 -0.51675,0.52256 l -1.32963,0 c -0.2845,0 -0.49933,-0.23225 -0.49933,-0.52256 z"
           style="fill:#6eb927" />
        <path
           inkscape:connector-curvature="0"
           id="path3399"
           d="m 470.19525,319.4339 c -0.4645,0 -0.81288,0.17418 -1.16125,0.29031 -0.17419,0.11612 -0.29031,0.17418 -0.40643,0.17418 -0.0581,0 -0.11613,-0.0581 -0.17419,-0.0581 l -0.11613,-0.23225 c 0,-0.0581 -0.11612,-0.17418 -0.23224,-0.17418 l -0.19161,0 c -0.16257,0 -0.29031,0.17418 -0.29031,0.34837 l 0,6.61909 c 0,0.23225 0.16257,0.40644 0.3716,0.40644 l 0.16838,0 c 0.17418,0 0.34837,-0.17419 0.34837,-0.40644 l 0,-2.20636 c 0,-0.0581 0.0581,-0.11612 0.11613,-0.11612 0.11612,0 0.23224,0.0581 0.40643,0.17418 0.34837,0.11613 0.69675,0.29031 1.16125,0.29031 l 0.17418,0 c 0.87094,0 1.3935,-0.52256 1.3935,-1.27737 l 0,-2.55473 c 0,-0.81288 -0.52256,-1.27737 -1.3935,-1.27737 l -0.17418,0 z m -1.68381,3.65792 0,-2.26443 c 0,-0.29031 0.23225,-0.58062 0.58062,-0.58062 l 1.21931,0 c 0.34837,0 0.58062,0.29031 0.58062,0.58062 l 0,2.26443 c 0,0.34837 -0.29031,0.58062 -0.58062,0.58062 l -1.21931,0 c -0.34837,0 -0.58062,-0.23225 -0.58062,-0.58062 z"
           style="fill:#6eb927" />
        <path
           inkscape:connector-curvature="0"
           id="path3401"
           d="m 474.2596,319.4339 c -0.69675,0 -1.21931,0.58062 -1.21931,1.2193 l 0,2.6128 c 0,0.63869 0.52256,1.21931 1.16125,1.21931 l 1.74187,0 c 0.23225,0 0.40643,-0.11612 0.40643,-0.34837 l 0,-0.11613 c 0,-0.17418 -0.17418,-0.34837 -0.40643,-0.34837 l -1.3935,0 c -0.40643,0 -0.63868,-0.17419 -0.63868,-0.58062 0,0 0,-0.63869 0,-0.75481 0.11612,0 2.6128,0 2.6128,0 0.40643,0 0.63868,-0.23225 0.63868,-0.69675 l 0,-0.98706 c 0,-0.69674 -0.52256,-1.2193 -1.2193,-1.2193 l -1.68381,0 z m -0.34837,1.33543 c 0,-0.29031 0.23225,-0.52256 0.52256,-0.52256 l 1.33543,0 c 0.29031,0 0.52256,0.23225 0.52256,0.52256 0,0 0,0.69675 0,0.81287 -0.11612,0 -2.26443,0 -2.38055,0 0,-0.11612 0,-0.81287 0,-0.81287 z"
           style="fill:#6eb927" />
        <path
           inkscape:connector-curvature="0"
           id="path3403"
           d="m 480.76257,319.4339 c -0.4645,0 -0.81287,0.17418 -1.16124,0.29031 -0.17419,0.11612 -0.29031,0.17418 -0.4645,0.17418 -0.0581,0 -0.0581,0 -0.11613,-0.11612 l -0.11612,-0.17419 c -0.0581,-0.11612 -0.11612,-0.17418 -0.29031,-0.17418 l -0.11613,0 c -0.17418,0 -0.29031,0.17418 -0.29031,0.34837 l 0,4.35467 c 0,0.17418 0.17419,0.34837 0.34838,0.34837 l 0.17418,0 c 0.17419,0 0.34838,-0.17419 0.34838,-0.34837 l 0,-3.30955 c 0,-0.29031 0.23225,-0.58062 0.58062,-0.58062 l 1.21931,0 c 0.29031,0 0.58062,0.29031 0.58062,0.58062 l 0,3.30955 c 0,0.17418 0.17418,0.34837 0.34837,0.34837 l 0.17419,0 c 0.17418,0 0.34837,-0.17419 0.34837,-0.34837 l 0,-3.42567 c 0,-0.81288 -0.52256,-1.27737 -1.39349,-1.27737 l -0.17419,0 z"
           style="fill:#6eb927" />
        <path
           inkscape:connector-curvature="0"
           id="path3405"
           d="m 485.93011,316.12435 c -1.39349,0 -2.1483,1.16124 -2.1483,1.97412 l 0,1.04512 c 0,1.16124 0.98706,1.91605 1.85799,1.91605 l 3.13536,0 c 0.40643,0 0.52256,0.23225 0.52256,0.4645 l 0,0.69674 c 0,0.0581 -0.0581,0.69675 -0.52256,0.69675 l -4.29661,0 c -0.40643,0 -0.69674,0.29031 -0.69674,0.69675 l 0,0.17418 c 0,0.40644 0.29031,0.69675 0.69674,0.69675 l 4.52886,0 c 1.2193,0 1.97411,-0.81287 1.97411,-2.09024 l 0,-1.10318 c 0,-1.21931 -0.87093,-1.74187 -1.74186,-1.74187 l -3.0773,0 c -0.4645,0 -0.69675,-0.34837 -0.69675,-0.58062 l 0,-0.63869 c 0,-0.40643 0.29031,-0.58062 0.75481,-0.58062 l 3.42567,0 c 0.40644,0 0.69675,-0.34837 0.69675,-0.75481 l 0,-0.17418 c 0,-0.40644 -0.29031,-0.69675 -0.75481,-0.69675 l -3.65792,0 z"
           style="fill:#0d5148" />
        <path
           inkscape:connector-curvature="0"
           id="path3407"
           d="m 498.81992,316.12435 c -0.40643,0 -0.7548,0.34837 -0.7548,0.75481 l 0,5.28366 c 0,0.40644 -0.34838,0.75481 -0.75481,0.75481 l -2.38055,0 c -0.4645,0 -0.81288,-0.34837 -0.81288,-0.75481 l 0,-5.28366 c 0,-0.40644 -0.29031,-0.75481 -0.69674,-0.75481 l -0.23225,0 c -0.40644,0 -0.75481,0.34837 -0.75481,0.75481 l 0,5.45785 c 0,1.27737 0.98706,2.20636 2.38055,2.20636 l 2.55474,0 c 1.39349,0 2.38055,-0.92899 2.38055,-2.20636 l 0,-5.45785 c 0,-0.40644 -0.29031,-0.75481 -0.69675,-0.75481 l -0.23225,0 z"
           style="fill:#0d5148" />
        <use
           xlink:href="#S"
           id="use3409"
           transform="translate(17.476731,0)"
           x="0"
           y="0"
           width="303.30707"
           height="191.26772" />
        <path
           inkscape:connector-curvature="0"
           id="path3411"
           d="m 510.60656,316.12435 c -0.40644,0 -0.69675,0.29031 -0.69675,0.69675 l 0,6.96746 c 0,0.40644 0.29031,0.69675 0.69675,0.69675 l 5.51591,0 c 0.4645,0 0.75481,-0.29031 0.75481,-0.69675 l 0,-0.17418 c 0,-0.40644 -0.29031,-0.69675 -0.75481,-0.69675 0,0 -4.29661,0 -4.52885,0 0,-0.17419 0,-1.62574 0,-1.79993 0.23224,0 3.3676,0 3.3676,0 0.40644,0 0.69675,-0.29031 0.69675,-0.69675 l 0,-0.17418 c 0,-0.40644 -0.29031,-0.69675 -0.69675,-0.69675 0,0 -3.13536,0 -3.3676,0 0,-0.17419 0,-1.62574 0,-1.79993 0.23224,0 4.2966,0 4.2966,0 0.4645,0 0.75481,-0.34837 0.75481,-0.75481 l 0,-0.17418 c 0,-0.40644 -0.29031,-0.69675 -0.75481,-0.69675 l -5.28366,0 z"
           style="fill:#0d5148" />
        <path
           inkscape:connector-curvature="0"
           id="path3413"
           d="m 518.73295,317.32856 -0.0372,0 c -0.0453,0 -0.0807,-0.0372 -0.0807,-0.0819 l 0,-0.57017 -0.12599,0.18987 c -0.0145,0.0209 -0.0407,0.0308 -0.0645,0.0308 l -0.0157,0 c -0.025,0 -0.0499,-0.01 -0.0633,-0.0308 l -0.12832,-0.18987 0,0.57017 c 0,0.0441 -0.0395,0.0819 -0.0842,0.0819 l -0.0372,0 c -0.0453,0 -0.0795,-0.0372 -0.0795,-0.0819 l 0,-0.68339 -0.38321,0 0,0.68339 c 0,0.0441 -0.0406,0.0819 -0.0859,0.0819 l -0.036,0 c -0.0441,0 -0.0807,-0.0372 -0.0807,-0.0819 l 0,-0.68339 -0.28915,0 c -0.0453,0 -0.0795,-0.029 -0.0795,-0.0737 l 0,-0.0424 c 0,-0.0482 0.036,-0.0749 0.0795,-0.0749 l 1.00448,0 c 0.0418,0 0.0656,0.0163 0.0795,0.0377 l 0.19161,0.28857 0.1916,-0.28857 c 0.0157,-0.0215 0.0383,-0.0377 0.0819,-0.0377 l 0.12832,0 0,0.87441 c -5.8e-4,0.0441 -0.0412,0.0819 -0.0859,0.0819 z"
           style="fill:#0d5148" />
      </g>
      <rect
         y="153.24934"
         x="233.437"
         height="191.26772"
         width="26.5639"
         id="rect3415"
         style="fill:#6eb927;fill-opacity:1;fill-rule:evenodd;stroke:none" />
      <rect
         style="fill:none;stroke:#000000;stroke-width:0.99863935;stroke-linecap:butt;stroke-linejoin:bevel;stroke-miterlimit:4;stroke-opacity:0.50196078;stroke-dasharray:none"
         id="rect3417"
         width="302.30844"
         height="190.26907"
         x="233.93631"
         y="153.74867" />
      <text
         xml:space="preserve"
         style="font-size:18px;font-style:normal;font-weight:normal;text-align:center;text-anchor:middle;fill:#000000;fill-opacity:1;stroke:none;font-family:Bitstream Charter"
         x="277.5022"
         y="213.17801"
         id="text3419"><tspan
           sodipodi:role="line"
           id="tspan3421"
           x="277.5022"
           y="213.17801"
           style="font-weight:bold;text-align:start;text-anchor:start;-inkscape-font-specification:Bitstream Charter Bold">__NAME__</tspan></text>
      <text
         xml:space="preserve"
         style="font-size:18px;font-style:normal;font-weight:normal;text-align:center;text-anchor:middle;fill:#000000;fill-opacity:1;stroke:none;font-family:Bitstream Charter"
         x="277.4902"
         y="235.36185"
         id="text3423"><tspan
           sodipodi:role="line"
           id="tspan3425"
           x="277.4902"
           y="235.36185"
           style="font-size:14px;text-align:start;text-anchor:start">__POSITION__</tspan></text>
      <text
         xml:space="preserve"
         style="font-size:18px;font-style:normal;font-weight:normal;text-align:center;text-anchor:middle;fill:#000000;fill-opacity:1;stroke:none;font-family:Bitstream Charter"
         x="277.67621"
         y="268.86292"
         id="text3427"><tspan
           sodipodi:role="line"
           id="tspan3429"
           x="277.67621"
           y="268.86292"
           style="font-size:12px;text-align:start;text-anchor:start">__EMAIL__</tspan></text>
      <text
         xml:space="preserve"
         style="font-size:18px;font-style:normal;font-weight:normal;text-align:center;text-anchor:middle;fill:#000000;fill-opacity:1;stroke:none;font-family:Bitstream Charter"
         x="277.67621"
         y="288.75146"
         id="text3431"><tspan
           sodipodi:role="line"
           id="tspan3433"
           x="277.67621"
           y="288.75146"
           style="font-size:12px;text-align:start;text-anchor:start">__PHONE__</tspan></text>
      <text
         xml:space="preserve"
         style="font-size:18px;font-style:normal;font-weight:normal;text-align:center;text-anchor:middle;fill:#000000;fill-opacity:1;stroke:none;font-family:Bitstream Charter"
         x="277.0842"
         y="322.13254"
         id="text3435"><tspan
           sodipodi:role="line"
           id="tspan3437"
           x="277.0842"
           y="322.13254"
           style="font-size:12px;text-align:start;text-anchor:start">__WEB__</tspan></text>
    </g>
  </g>
</svg>
